# xmcd
#
# Track frame offsets:
#  150
#  16977
#  32085
#  47905
#  67545
#  82950
#  105340
#  122505
#  144312
#  166865
#  182519
#  199944
#  215885
#  238484
#  255400
#
# Disc length: 3714 seconds
#
# Revision: 0
# Processed by: cddbd v1.4PL0 Copyright (c) Steve Scherf et al.
# Submitted via: AltoMP3_Maker 3.0
#
DISCID=c30e800f
DTITLE=Bob Meehan and Mark Patten - Acoustic Blues
DYEAR=1900
DGENRE=
TTITLE0=Gambler Blues
TTITLE1=I'm So Glad
TTITLE2=Shake It Break It
TTITLE3=See That My Grave is Kept Kleen
TTITLE4=How Do You Want It Done
TTITLE5=Broke Down Engine
TTITLE6=Screamin' and Hollerin' the Blues
TTITLE7=Stockin' Feet
TTITLE8=Last Fair Deal Goin' Down
TTITLE9=Pony Blues
TTITLE10=Hello Central
TTITLE11=Cherry Ball Blues
TTITLE12=Keep Your Lamp Trimed and Burnin'
TTITLE13=John Henry
TTITLE14=Gallows Pole
EXTD=
EXTT0=
EXTT1=
EXTT2=
EXTT3=
EXTT4=
EXTT5=
EXTT6=
EXTT7=
EXTT8=
EXTT9=
EXTT10=
EXTT11=
EXTT12=
EXTT13=
EXTT14=
PLAYORDER=
